<svg width="159" height="28" viewBox="0 0 159 28" fill="none" xmlns="http://www.w3.org/2000/svg">
<mask id="path-1-outside-1_285_1071" maskUnits="userSpaceOnUse" x="0.160156" y="0.725586" width="159" height="27" fill="black">
<rect fill="white" x="0.160156" y="0.725586" width="159" height="27"/>
<path d="M16.9264 25.7256L10.0688 16.2254H4.3821V25.7256H1.60564V2.30965H11.3734C14.0941 2.30965 16.157 2.90063 17.5619 4.08258C18.9669 5.26452 19.6694 6.99284 19.6694 9.26753C19.6694 13.3263 17.5173 15.6121 13.2133 16.1251L20.3049 25.7256H16.9264ZM4.3821 13.6831H11.0389C14.8747 13.6831 16.7925 12.2112 16.7925 9.26753C16.7925 6.32382 14.8747 4.85196 11.0389 4.85196H4.3821V13.6831ZM40.2725 17.3628C40.2725 17.7865 40.2614 18.0875 40.2391 18.2659H25.0187C25.1302 19.9608 25.7992 21.2877 27.0258 22.2466C28.2523 23.2056 29.8134 23.6851 31.709 23.6851C32.8686 23.6851 33.9391 23.4955 34.9203 23.1164C35.9238 22.7373 36.6709 22.2132 37.1615 21.5442L39.5031 22.7484C38.7226 23.8189 37.6187 24.6551 36.1914 25.2573C34.7865 25.8371 33.3035 26.127 31.7424 26.127C28.9325 26.127 26.6467 25.3465 24.8849 23.7854C23.1231 22.202 22.2422 20.0612 22.2422 17.3628C22.2422 14.7312 23.0785 12.6127 24.7511 11.007C26.4237 9.40134 28.5868 8.59851 31.2406 8.59851C33.9168 8.59851 36.0911 9.40134 37.7637 11.007C39.4362 12.6127 40.2725 14.7312 40.2725 17.3628ZM31.2406 11.0405C29.5681 11.0405 28.1631 11.4865 27.0258 12.3785C25.9107 13.2705 25.264 14.4748 25.0856 15.9912H37.3957C37.2173 14.4748 36.5706 13.2705 35.4555 12.3785C34.3405 11.4865 32.9355 11.0405 31.2406 11.0405ZM45.9046 13.4155L43.3623 12.3116C44.0536 11.2412 45.0795 10.3603 46.4398 9.66895C47.8002 8.95532 49.3055 8.59851 50.9558 8.59851C53.2305 8.59851 55.0145 9.16718 56.308 10.3045C57.6237 11.4196 58.2816 12.9918 58.2816 15.0212V25.7256H55.572V23.4174C54.3232 25.2238 52.1935 26.127 49.1828 26.127C47.2873 26.127 45.7151 25.6698 44.4662 24.7555C43.2397 23.8189 42.6264 22.5589 42.6264 20.9755C42.6264 19.3475 43.2731 18.0875 44.5666 17.1955C45.86 16.2812 47.6998 15.824 50.086 15.824C52.0485 15.824 53.8772 16.0359 55.572 16.4596V14.9543C55.572 13.7054 55.1483 12.7465 54.3009 12.0774C53.4758 11.3861 52.3273 11.0405 50.8554 11.0405C49.785 11.0405 48.7926 11.2635 47.8782 11.7095C46.9639 12.1555 46.306 12.7242 45.9046 13.4155ZM55.572 20.6075V18.7343C54.011 18.3328 52.2492 18.1321 50.2867 18.1321C47.0085 18.1321 45.3694 19.0688 45.3694 20.942C45.3694 21.8341 45.7485 22.5143 46.5067 22.9826C47.2873 23.4509 48.3243 23.6851 49.6177 23.6851C50.9781 23.6851 52.2269 23.4063 53.3643 22.8488C54.5016 22.2689 55.2375 21.5219 55.572 20.6075ZM63.9061 23.7854C62.2336 22.202 61.3973 20.0612 61.3973 17.3628C61.3973 14.6643 62.2336 12.5346 63.9061 10.9735C65.601 9.39019 67.8199 8.59851 70.5629 8.59851C72.5254 8.59851 74.2091 9.02222 75.6141 9.86966C77.0413 10.6948 78.0672 11.7987 78.6916 13.1813L76.049 13.8838C75.7144 13.0141 75.0566 12.3228 74.0753 11.8098C73.0941 11.2969 71.9233 11.0405 70.5629 11.0405C68.6228 11.0405 67.0617 11.598 65.8798 12.713C64.7201 13.8281 64.1403 15.378 64.1403 17.3628C64.1403 19.3475 64.7201 20.8974 65.8798 22.0125C67.0617 23.1275 68.6228 23.6851 70.5629 23.6851C71.9233 23.6851 73.0941 23.4286 74.0753 22.9157C75.0566 22.4028 75.7144 21.7114 76.049 20.8417L78.6916 21.5442C78.0672 22.9268 77.0413 24.0419 75.6141 24.8893C74.2091 25.7144 72.5254 26.127 70.5629 26.127C67.8199 26.127 65.601 25.3465 63.9061 23.7854ZM84.313 1.70753V11.7095C85.0935 10.7951 86.0859 10.0481 87.2902 9.46824C88.4944 8.88842 89.799 8.59851 91.204 8.59851C93.1442 8.59851 94.6941 9.15603 95.8537 10.2711C97.0134 11.3638 97.5932 12.8245 97.5932 14.6532V25.7256H94.8836V14.9208C94.8836 13.6497 94.5045 12.6907 93.7463 12.044C93.0104 11.375 91.9734 11.0405 90.6353 11.0405C89.498 11.0405 88.316 11.4084 87.0895 12.1443C85.8852 12.858 84.9597 13.7389 84.313 14.787V25.7256H81.6035V1.70753H84.313ZM123.89 14.6197V25.7256H121.18V14.7535C121.18 13.5716 120.823 12.6573 120.11 12.0105C119.418 11.3638 118.448 11.0405 117.199 11.0405C116.218 11.0405 115.148 11.4307 113.988 12.2112C112.851 12.9695 112.014 13.8392 111.479 14.8205V25.7256H108.77V8.99992H111.479V11.7429C112.26 10.8063 113.219 10.0481 114.356 9.46824C115.516 8.88842 116.664 8.59851 117.801 8.59851C119.073 8.59851 120.188 8.87727 121.147 9.43479C122.106 9.99231 122.83 10.784 123.321 11.8098C124.213 10.8509 125.25 10.0815 126.432 9.50169C127.614 8.89957 128.785 8.59851 129.944 8.59851C131.929 8.59851 133.479 9.14488 134.594 10.2376C135.709 11.3081 136.267 12.7688 136.267 14.6197V25.7256H133.557V14.7535C133.557 13.5716 133.2 12.6573 132.487 12.0105C131.795 11.3638 130.803 11.0405 129.509 11.0405C128.55 11.0405 127.536 11.3527 126.465 11.9771C125.417 12.5792 124.547 13.304 123.856 14.1514C123.878 14.2629 123.89 14.419 123.89 14.6197ZM157.411 17.3628C157.411 17.7865 157.4 18.0875 157.377 18.2659H142.157C142.269 19.9608 142.938 21.2877 144.164 22.2466C145.391 23.2056 146.952 23.6851 148.847 23.6851C150.007 23.6851 151.077 23.4955 152.059 23.1164C153.062 22.7373 153.809 22.2132 154.3 21.5442L156.642 22.7484C155.861 23.8189 154.757 24.6551 153.33 25.2573C151.925 25.8371 150.442 26.127 148.881 26.127C146.071 26.127 143.785 25.3465 142.023 23.7854C140.262 22.202 139.381 20.0612 139.381 17.3628C139.381 14.7312 140.217 12.6127 141.89 11.007C143.562 9.40134 145.725 8.59851 148.379 8.59851C151.055 8.59851 153.23 9.40134 154.902 11.007C156.575 12.6127 157.411 14.7312 157.411 17.3628ZM148.379 11.0405C146.707 11.0405 145.302 11.4865 144.164 12.3785C143.049 13.2705 142.402 14.4748 142.224 15.9912H154.534C154.356 14.4748 153.709 13.2705 152.594 12.3785C151.479 11.4865 150.074 11.0405 148.379 11.0405Z"/>
</mask>
<path d="M16.9264 25.7256L10.0688 16.2254H4.3821V25.7256H1.60564V2.30965H11.3734C14.0941 2.30965 16.157 2.90063 17.5619 4.08258C18.9669 5.26452 19.6694 6.99284 19.6694 9.26753C19.6694 13.3263 17.5173 15.6121 13.2133 16.1251L20.3049 25.7256H16.9264ZM4.3821 13.6831H11.0389C14.8747 13.6831 16.7925 12.2112 16.7925 9.26753C16.7925 6.32382 14.8747 4.85196 11.0389 4.85196H4.3821V13.6831ZM40.2725 17.3628C40.2725 17.7865 40.2614 18.0875 40.2391 18.2659H25.0187C25.1302 19.9608 25.7992 21.2877 27.0258 22.2466C28.2523 23.2056 29.8134 23.6851 31.709 23.6851C32.8686 23.6851 33.9391 23.4955 34.9203 23.1164C35.9238 22.7373 36.6709 22.2132 37.1615 21.5442L39.5031 22.7484C38.7226 23.8189 37.6187 24.6551 36.1914 25.2573C34.7865 25.8371 33.3035 26.127 31.7424 26.127C28.9325 26.127 26.6467 25.3465 24.8849 23.7854C23.1231 22.202 22.2422 20.0612 22.2422 17.3628C22.2422 14.7312 23.0785 12.6127 24.7511 11.007C26.4237 9.40134 28.5868 8.59851 31.2406 8.59851C33.9168 8.59851 36.0911 9.40134 37.7637 11.007C39.4362 12.6127 40.2725 14.7312 40.2725 17.3628ZM31.2406 11.0405C29.5681 11.0405 28.1631 11.4865 27.0258 12.3785C25.9107 13.2705 25.264 14.4748 25.0856 15.9912H37.3957C37.2173 14.4748 36.5706 13.2705 35.4555 12.3785C34.3405 11.4865 32.9355 11.0405 31.2406 11.0405ZM45.9046 13.4155L43.3623 12.3116C44.0536 11.2412 45.0795 10.3603 46.4398 9.66895C47.8002 8.95532 49.3055 8.59851 50.9558 8.59851C53.2305 8.59851 55.0145 9.16718 56.308 10.3045C57.6237 11.4196 58.2816 12.9918 58.2816 15.0212V25.7256H55.572V23.4174C54.3232 25.2238 52.1935 26.127 49.1828 26.127C47.2873 26.127 45.7151 25.6698 44.4662 24.7555C43.2397 23.8189 42.6264 22.5589 42.6264 20.9755C42.6264 19.3475 43.2731 18.0875 44.5666 17.1955C45.86 16.2812 47.6998 15.824 50.086 15.824C52.0485 15.824 53.8772 16.0359 55.572 16.4596V14.9543C55.572 13.7054 55.1483 12.7465 54.3009 12.0774C53.4758 11.3861 52.3273 11.0405 50.8554 11.0405C49.785 11.0405 48.7926 11.2635 47.8782 11.7095C46.9639 12.1555 46.306 12.7242 45.9046 13.4155ZM55.572 20.6075V18.7343C54.011 18.3328 52.2492 18.1321 50.2867 18.1321C47.0085 18.1321 45.3694 19.0688 45.3694 20.942C45.3694 21.8341 45.7485 22.5143 46.5067 22.9826C47.2873 23.4509 48.3243 23.6851 49.6177 23.6851C50.9781 23.6851 52.2269 23.4063 53.3643 22.8488C54.5016 22.2689 55.2375 21.5219 55.572 20.6075ZM63.9061 23.7854C62.2336 22.202 61.3973 20.0612 61.3973 17.3628C61.3973 14.6643 62.2336 12.5346 63.9061 10.9735C65.601 9.39019 67.8199 8.59851 70.5629 8.59851C72.5254 8.59851 74.2091 9.02222 75.6141 9.86966C77.0413 10.6948 78.0672 11.7987 78.6916 13.1813L76.049 13.8838C75.7144 13.0141 75.0566 12.3228 74.0753 11.8098C73.0941 11.2969 71.9233 11.0405 70.5629 11.0405C68.6228 11.0405 67.0617 11.598 65.8798 12.713C64.7201 13.8281 64.1403 15.378 64.1403 17.3628C64.1403 19.3475 64.7201 20.8974 65.8798 22.0125C67.0617 23.1275 68.6228 23.6851 70.5629 23.6851C71.9233 23.6851 73.0941 23.4286 74.0753 22.9157C75.0566 22.4028 75.7144 21.7114 76.049 20.8417L78.6916 21.5442C78.0672 22.9268 77.0413 24.0419 75.6141 24.8893C74.2091 25.7144 72.5254 26.127 70.5629 26.127C67.8199 26.127 65.601 25.3465 63.9061 23.7854ZM84.313 1.70753V11.7095C85.0935 10.7951 86.0859 10.0481 87.2902 9.46824C88.4944 8.88842 89.799 8.59851 91.204 8.59851C93.1442 8.59851 94.6941 9.15603 95.8537 10.2711C97.0134 11.3638 97.5932 12.8245 97.5932 14.6532V25.7256H94.8836V14.9208C94.8836 13.6497 94.5045 12.6907 93.7463 12.044C93.0104 11.375 91.9734 11.0405 90.6353 11.0405C89.498 11.0405 88.316 11.4084 87.0895 12.1443C85.8852 12.858 84.9597 13.7389 84.313 14.787V25.7256H81.6035V1.70753H84.313ZM123.89 14.6197V25.7256H121.18V14.7535C121.18 13.5716 120.823 12.6573 120.11 12.0105C119.418 11.3638 118.448 11.0405 117.199 11.0405C116.218 11.0405 115.148 11.4307 113.988 12.2112C112.851 12.9695 112.014 13.8392 111.479 14.8205V25.7256H108.77V8.99992H111.479V11.7429C112.26 10.8063 113.219 10.0481 114.356 9.46824C115.516 8.88842 116.664 8.59851 117.801 8.59851C119.073 8.59851 120.188 8.87727 121.147 9.43479C122.106 9.99231 122.83 10.784 123.321 11.8098C124.213 10.8509 125.25 10.0815 126.432 9.50169C127.614 8.89957 128.785 8.59851 129.944 8.59851C131.929 8.59851 133.479 9.14488 134.594 10.2376C135.709 11.3081 136.267 12.7688 136.267 14.6197V25.7256H133.557V14.7535C133.557 13.5716 133.2 12.6573 132.487 12.0105C131.795 11.3638 130.803 11.0405 129.509 11.0405C128.55 11.0405 127.536 11.3527 126.465 11.9771C125.417 12.5792 124.547 13.304 123.856 14.1514C123.878 14.2629 123.89 14.419 123.89 14.6197ZM157.411 17.3628C157.411 17.7865 157.4 18.0875 157.377 18.2659H142.157C142.269 19.9608 142.938 21.2877 144.164 22.2466C145.391 23.2056 146.952 23.6851 148.847 23.6851C150.007 23.6851 151.077 23.4955 152.059 23.1164C153.062 22.7373 153.809 22.2132 154.3 21.5442L156.642 22.7484C155.861 23.8189 154.757 24.6551 153.33 25.2573C151.925 25.8371 150.442 26.127 148.881 26.127C146.071 26.127 143.785 25.3465 142.023 23.7854C140.262 22.202 139.381 20.0612 139.381 17.3628C139.381 14.7312 140.217 12.6127 141.89 11.007C143.562 9.40134 145.725 8.59851 148.379 8.59851C151.055 8.59851 153.23 9.40134 154.902 11.007C156.575 12.6127 157.411 14.7312 157.411 17.3628ZM148.379 11.0405C146.707 11.0405 145.302 11.4865 144.164 12.3785C143.049 13.2705 142.402 14.4748 142.224 15.9912H154.534C154.356 14.4748 153.709 13.2705 152.594 12.3785C151.479 11.4865 150.074 11.0405 148.379 11.0405Z" fill="#FFF9EF"/>
<path d="M16.9264 25.7256L16.1729 26.2694L16.4511 26.6548H16.9264V25.7256ZM10.0688 16.2254L10.8223 15.6816L10.5441 15.2962H10.0688V16.2254ZM4.3821 16.2254V15.2962H3.4529V16.2254H4.3821ZM4.3821 25.7256V26.6548H5.31131V25.7256H4.3821ZM1.60564 25.7256H0.67644V26.6548H1.60564V25.7256ZM1.60564 2.30965V1.38045H0.67644V2.30965H1.60564ZM17.5619 4.08258L16.9637 4.79363L17.5619 4.08258ZM13.2133 16.1251L13.1033 15.2024L11.5162 15.3915L12.4658 16.6771L13.2133 16.1251ZM20.3049 25.7256V26.6548H22.1465L21.0523 25.1735L20.3049 25.7256ZM4.3821 13.6831H3.4529V14.6123H4.3821V13.6831ZM4.3821 4.85196V3.92275H3.4529V4.85196H4.3821ZM16.9264 25.7256L17.6798 25.1817L10.8223 15.6816L10.0688 16.2254L9.3154 16.7693L16.1729 26.2694L16.9264 25.7256ZM10.0688 16.2254V15.2962H4.3821V16.2254V17.1546H10.0688V16.2254ZM4.3821 16.2254H3.4529V25.7256H4.3821H5.31131V16.2254H4.3821ZM4.3821 25.7256V24.7964H1.60564V25.7256V26.6548H4.3821V25.7256ZM1.60564 25.7256H2.53485V2.30965H1.60564H0.67644V25.7256H1.60564ZM1.60564 2.30965V3.23886H11.3734V2.30965V1.38045H1.60564V2.30965ZM11.3734 2.30965V3.23886C13.9774 3.23886 15.7906 3.80672 16.9637 4.79363L17.5619 4.08258L18.1601 3.37153C16.5233 1.99453 14.2108 1.38045 11.3734 1.38045V2.30965ZM17.5619 4.08258L16.9637 4.79363C18.1097 5.75769 18.7402 7.19567 18.7402 9.26753H19.6694H20.5986C20.5986 6.79002 19.8241 4.77135 18.1601 3.37153L17.5619 4.08258ZM19.6694 9.26753H18.7402C18.7402 11.1319 18.2492 12.4645 17.3788 13.389C16.5005 14.322 15.1208 14.962 13.1033 15.2024L13.2133 16.1251L13.3232 17.0477C15.6098 16.7752 17.4582 16.0158 18.7319 14.6629C20.0135 13.3017 20.5986 11.4619 20.5986 9.26753H19.6694ZM13.2133 16.1251L12.4658 16.6771L19.5575 26.2777L20.3049 25.7256L21.0523 25.1735L13.9607 15.573L13.2133 16.1251ZM20.3049 25.7256V24.7964H16.9264V25.7256V26.6548H20.3049V25.7256ZM4.3821 13.6831V14.6123H11.0389V13.6831V12.7539H4.3821V13.6831ZM11.0389 13.6831V14.6123C13.0496 14.6123 14.728 14.2311 15.9199 13.3164C17.1583 12.3659 17.7218 10.9582 17.7218 9.26753H16.7925H15.8633C15.8633 10.5206 15.4678 11.3207 14.7884 11.8421C14.0624 12.3992 12.864 12.7539 11.0389 12.7539V13.6831ZM16.7925 9.26753H17.7218C17.7218 7.57686 17.1583 6.16915 15.9199 5.2187C14.728 4.304 13.0496 3.92275 11.0389 3.92275V4.85196V5.78116C12.864 5.78116 14.0624 6.13584 14.7884 6.693C15.4678 7.21441 15.8633 8.01449 15.8633 9.26753H16.7925ZM11.0389 4.85196V3.92275H4.3821V4.85196V5.78116H11.0389V4.85196ZM4.3821 4.85196H3.4529V13.6831H4.3821H5.31131V4.85196H4.3821ZM40.2391 18.2659V19.1951H41.0593L41.1611 18.3812L40.2391 18.2659ZM25.0187 18.2659V17.3367H24.0264L24.0915 18.3269L25.0187 18.2659ZM27.0258 22.2466L26.4535 22.9787L27.0258 22.2466ZM34.9203 23.1164L34.5919 22.2471L34.5854 22.2496L34.9203 23.1164ZM37.1615 21.5442L37.5865 20.7178L36.8812 20.3551L36.4122 20.9947L37.1615 21.5442ZM39.5031 22.7484L40.2539 23.2959L40.8936 22.4186L39.9281 21.9221L39.5031 22.7484ZM36.1914 25.2573L36.5459 26.1162L36.5526 26.1134L36.1914 25.2573ZM24.8849 23.7854L24.2638 24.4765L24.2687 24.4809L24.8849 23.7854ZM24.7511 11.007L24.1076 10.3367L24.7511 11.007ZM37.7637 11.007L38.4072 10.3367L37.7637 11.007ZM27.0258 12.3785L26.4523 11.6473L26.4453 11.6529L27.0258 12.3785ZM25.0856 15.9912L24.1628 15.8827L24.0407 16.9205H25.0856V15.9912ZM37.3957 15.9912V16.9205H38.4406L38.3185 15.8827L37.3957 15.9912ZM35.4555 12.3785L34.875 13.1041L35.4555 12.3785ZM40.2725 17.3628H39.3433C39.3433 17.7855 39.3315 18.0352 39.317 18.1507L40.2391 18.2659L41.1611 18.3812C41.1912 18.1398 41.2017 17.7875 41.2017 17.3628H40.2725ZM40.2391 18.2659V17.3367H25.0187V18.2659V19.1951H40.2391V18.2659ZM25.0187 18.2659L24.0915 18.3269C24.2186 20.2589 24.9981 21.8409 26.4535 22.9787L27.0258 22.2466L27.5981 21.5146C26.6003 20.7345 26.0418 19.6627 25.9459 18.2049L25.0187 18.2659ZM27.0258 22.2466L26.4535 22.9787C27.8766 24.0913 29.6524 24.6143 31.709 24.6143V23.6851V22.7559C29.9744 22.7559 28.6281 22.3199 27.5981 21.5146L27.0258 22.2466ZM31.709 23.6851V24.6143C32.9714 24.6143 34.1567 24.4076 35.2552 23.9831L34.9203 23.1164L34.5854 22.2496C33.7214 22.5834 32.7658 22.7559 31.709 22.7559V23.6851ZM34.9203 23.1164L35.2487 23.9856C36.3718 23.5613 37.2867 22.9447 37.9108 22.0937L37.1615 21.5442L36.4122 20.9947C36.0551 21.4816 35.4759 21.9132 34.5919 22.2471L34.9203 23.1164ZM37.1615 21.5442L36.7366 22.3705L39.0782 23.5747L39.5031 22.7484L39.9281 21.9221L37.5865 20.7178L37.1615 21.5442ZM39.5031 22.7484L38.7523 22.201C38.087 23.1134 37.1287 23.8534 35.8303 24.4011L36.1914 25.2573L36.5526 26.1134C38.1087 25.4569 39.3582 24.5243 40.2539 23.2959L39.5031 22.7484ZM36.1914 25.2573L35.837 24.3983C34.5475 24.9305 33.1852 25.1978 31.7424 25.1978V26.127V27.0562C33.4217 27.0562 35.0255 26.7437 36.5459 26.1162L36.1914 25.2573ZM31.7424 26.127V25.1978C29.1133 25.1978 27.0612 24.4723 25.5011 23.0899L24.8849 23.7854L24.2687 24.4809C26.2321 26.2206 28.7518 27.0562 31.7424 27.0562V26.127ZM24.8849 23.7854L25.506 23.0943C23.9686 21.7126 23.1714 19.8381 23.1714 17.3628H22.2422H21.313C21.313 20.2842 22.2776 22.6915 24.2638 24.4765L24.8849 23.7854ZM22.2422 17.3628H23.1714C23.1714 14.9468 23.9299 13.0834 25.3946 11.6773L24.7511 11.007L24.1076 10.3367C22.2271 12.1419 21.313 14.5157 21.313 17.3628H22.2422ZM24.7511 11.007L25.3946 11.6773C26.8689 10.262 28.7893 9.52771 31.2406 9.52771V8.59851V7.6693C28.3844 7.6693 25.9784 8.54067 24.1076 10.3367L24.7511 11.007ZM31.2406 8.59851V9.52771C33.7167 9.52771 35.6474 10.2634 37.1202 11.6773L37.7637 11.007L38.4072 10.3367C36.5348 8.53923 34.1168 7.6693 31.2406 7.6693V8.59851ZM37.7637 11.007L37.1202 11.6773C38.5849 13.0834 39.3433 14.9468 39.3433 17.3628H40.2725H41.2017C41.2017 14.5157 40.2876 12.1419 38.4072 10.3367L37.7637 11.007ZM31.2406 11.0405V10.1112C29.3943 10.1112 27.7783 10.6074 26.4523 11.6474L27.0258 12.3785L27.5992 13.1097C28.548 12.3655 29.7418 11.9697 31.2406 11.9697V11.0405ZM27.0258 12.3785L26.4453 11.6529C25.1253 12.7089 24.3675 14.1421 24.1628 15.8827L25.0856 15.9912L26.0084 16.0998C26.1605 14.8075 26.6961 13.8322 27.6062 13.1041L27.0258 12.3785ZM25.0856 15.9912V16.9205H37.3957V15.9912V15.062H25.0856V15.9912ZM37.3957 15.9912L38.3185 15.8827C38.1138 14.1421 37.356 12.7089 36.036 11.6529L35.4555 12.3785L34.875 13.1041C35.7851 13.8322 36.3208 14.8075 36.4729 16.0998L37.3957 15.9912ZM35.4555 12.3785L36.036 11.6529C34.7268 10.6055 33.1055 10.1112 31.2406 10.1112V11.0405V11.9697C32.7655 11.9697 33.9542 12.3674 34.875 13.1041L35.4555 12.3785ZM45.9046 13.4155L45.5345 14.2678L46.293 14.5971L46.7082 13.8821L45.9046 13.4155ZM43.3623 12.3116L42.5817 11.8075L41.9875 12.7277L42.9922 13.1639L43.3623 12.3116ZM46.4398 9.66895L46.8608 10.4974L46.8715 10.4918L46.4398 9.66895ZM56.308 10.3045L55.6944 11.0023L55.7008 11.0079L55.7072 11.0134L56.308 10.3045ZM58.2816 25.7256V26.6548H59.2108V25.7256H58.2816ZM55.572 25.7256H54.6428V26.6548H55.572V25.7256ZM55.572 23.4174H56.5012V20.4395L54.8077 22.889L55.572 23.4174ZM44.4662 24.7555L43.9023 25.494L43.9097 25.4997L43.9173 25.5052L44.4662 24.7555ZM44.5666 17.1955L45.0941 17.9605L45.1029 17.9543L44.5666 17.1955ZM55.572 16.4596L55.3467 17.361L56.5012 17.6497V16.4596H55.572ZM54.3009 12.0774L53.7041 12.7897L53.7145 12.7984L53.7251 12.8068L54.3009 12.0774ZM47.8782 11.7095L47.4709 10.8743V10.8743L47.8782 11.7095ZM55.572 20.6075L56.4447 20.9268L56.5012 20.7722V20.6075H55.572ZM55.572 18.7343H56.5012V18.0138L55.8035 17.8343L55.572 18.7343ZM46.5067 22.9826L46.0184 23.7732L46.0287 23.7794L46.5067 22.9826ZM53.3643 22.8488L53.7733 23.6831L53.7798 23.6799L53.7863 23.6766L53.3643 22.8488ZM45.9046 13.4155L46.2747 12.5632L43.7324 11.4593L43.3623 12.3116L42.9922 13.1639L45.5345 14.2678L45.9046 13.4155ZM43.3623 12.3116L44.1429 12.8157C44.729 11.9082 45.6179 11.129 46.8608 10.4973L46.4398 9.66895L46.0189 8.84058C44.5411 9.59158 43.3783 10.5741 42.5817 11.8075L43.3623 12.3116ZM46.4398 9.66895L46.8715 10.4918C48.0889 9.85316 49.4444 9.52771 50.9558 9.52771V8.59851V7.6693C49.1666 7.6693 47.5115 8.05748 46.0082 8.84609L46.4398 9.66895ZM50.9558 8.59851V9.52771C53.0783 9.52771 54.6187 10.0565 55.6944 11.0023L56.308 10.3045L56.9216 9.60672C55.4103 8.27787 53.3826 7.6693 50.9558 7.6693V8.59851ZM56.308 10.3045L55.7072 11.0134C56.7771 11.9201 57.3524 13.2115 57.3524 15.0212H58.2816H59.2108C59.2108 12.7721 58.4704 10.9191 56.9087 9.59564L56.308 10.3045ZM58.2816 15.0212H57.3524V25.7256H58.2816H59.2108V15.0212H58.2816ZM58.2816 25.7256V24.7964H55.572V25.7256V26.6548H58.2816V25.7256ZM55.572 25.7256H56.5012V23.4174H55.572H54.6428V25.7256H55.572ZM55.572 23.4174L54.8077 22.889C53.7924 24.3577 52.0116 25.1978 49.1828 25.1978V26.127V27.0562C52.3753 27.0562 54.854 26.09 56.3364 23.9459L55.572 23.4174ZM49.1828 26.127V25.1978C47.4395 25.1978 46.0717 24.7794 45.0151 24.0058L44.4662 24.7555L43.9173 25.5052C45.3584 26.5603 47.1351 27.0562 49.1828 27.0562V26.127ZM44.4662 24.7555L45.0301 24.017C44.0407 23.2614 43.5556 22.278 43.5556 20.9755H42.6264H41.6972C41.6972 22.8397 42.4386 24.3763 43.9023 25.494L44.4662 24.7555ZM42.6264 20.9755H43.5556C43.5556 19.6399 44.0628 18.6717 45.0941 17.9604L44.5666 17.1955L44.039 16.4306C42.4834 17.5034 41.6972 19.0552 41.6972 20.9755H42.6264ZM44.5666 17.1955L45.1029 17.9543C46.1784 17.194 47.8002 16.7532 50.086 16.7532V15.824V14.8948C47.5994 14.8948 45.5417 15.3683 44.0302 16.4367L44.5666 17.1955ZM50.086 15.824V16.7532C51.9817 16.7532 53.7339 16.9578 55.3467 17.361L55.572 16.4596L55.7974 15.5581C54.0204 15.1139 52.1153 14.8948 50.086 14.8948V15.824ZM55.572 16.4596H56.5012V14.9543H55.572H54.6428V16.4596H55.572ZM55.572 14.9543H56.5012C56.5012 13.4712 55.9839 12.2223 54.8767 11.3481L54.3009 12.0774L53.7251 12.8068C54.3127 13.2706 54.6428 13.9396 54.6428 14.9543H55.572ZM54.3009 12.0774L54.8976 11.3652C53.8527 10.4897 52.4655 10.1112 50.8554 10.1112V11.0405V11.9697C52.189 11.9697 53.0988 12.2825 53.7041 12.7897L54.3009 12.0774ZM50.8554 11.0405V10.1112C49.6514 10.1112 48.5187 10.3632 47.4709 10.8743L47.8782 11.7095L48.2856 12.5446C49.0664 12.1637 49.9186 11.9697 50.8554 11.9697V11.0405ZM47.8782 11.7095L47.4709 10.8743C46.4358 11.3792 45.6173 12.0597 45.101 12.9489L45.9046 13.4155L46.7082 13.8821C46.9947 13.3886 47.492 12.9318 48.2856 12.5446L47.8782 11.7095ZM55.572 20.6075H56.5012V18.7343H55.572H54.6428V20.6075H55.572ZM55.572 18.7343L55.8035 17.8343C54.1525 17.4098 52.311 17.2029 50.2867 17.2029V18.1321V19.0613C52.1874 19.0613 53.8694 19.2559 55.3406 19.6342L55.572 18.7343ZM50.2867 18.1321V17.2029C48.5896 17.2029 47.1664 17.44 46.1377 18.0278C45.0314 18.66 44.4402 19.6687 44.4402 20.942H45.3694H46.2986C46.2986 20.3421 46.5269 19.9459 47.0597 19.6414C47.6702 19.2925 48.7057 19.0613 50.2867 19.0613V18.1321ZM45.3694 20.942H44.4402C44.4402 22.1558 44.9858 23.1353 46.0184 23.7731L46.5067 22.9826L46.995 22.192C46.5112 21.8932 46.2986 21.5123 46.2986 20.942H45.3694ZM46.5067 22.9826L46.0287 23.7794C47.002 24.3634 48.2231 24.6143 49.6177 24.6143V23.6851V22.7559C48.4254 22.7559 47.5725 22.5384 46.9848 22.1858L46.5067 22.9826ZM49.6177 23.6851V24.6143C51.1091 24.6143 52.4993 24.3076 53.7733 23.6831L53.3643 22.8488L52.9553 22.0144C51.9545 22.505 50.847 22.7559 49.6177 22.7559V23.6851ZM53.3643 22.8488L53.7863 23.6766C55.0658 23.0243 56.007 22.123 56.4447 20.9268L55.572 20.6075L54.6994 20.2883C54.468 20.9207 53.9374 21.5136 52.9422 22.0209L53.3643 22.8488ZM63.9061 23.7854L63.2673 24.4603L63.2766 24.4689L63.9061 23.7854ZM63.9061 10.9735L64.5401 11.6528L64.5405 11.6526L63.9061 10.9735ZM75.6141 9.86965L75.1342 10.6653L75.1416 10.6698L75.149 10.6741L75.6141 9.86965ZM78.6916 13.1813L78.9303 14.0794L79.9896 13.7978L79.5385 12.7989L78.6916 13.1813ZM76.049 13.8838L75.1817 14.2174L75.4812 14.9962L76.2877 14.7818L76.049 13.8838ZM74.0753 11.8098L73.6449 12.6333V12.6333L74.0753 11.8098ZM65.8798 12.713L65.2421 12.0371L65.2357 12.0432L65.8798 12.713ZM65.8798 22.0125L65.2357 22.6823L65.2421 22.6884L65.8798 22.0125ZM74.0753 22.9157L73.6449 22.0922L74.0753 22.9157ZM76.049 20.8417L76.2877 19.9437L75.4812 19.7293L75.1817 20.5081L76.049 20.8417ZM78.6916 21.5442L79.5385 21.9266L79.9896 20.9277L78.9303 20.6462L78.6916 21.5442ZM75.6141 24.8893L76.0847 25.6906L76.0885 25.6883L75.6141 24.8893ZM63.9061 23.7854L64.5449 23.1106C63.0897 21.733 62.3265 19.8535 62.3265 17.3628H61.3973H60.4681C60.4681 20.2688 61.3774 22.6711 63.2673 24.4602L63.9061 23.7854ZM61.3973 17.3628H62.3265C62.3265 14.8716 63.0897 13.0066 64.5401 11.6528L63.9061 10.9735L63.2721 10.2943C61.3774 12.0626 60.4681 14.4571 60.4681 17.3628H61.3973ZM63.9061 10.9735L64.5405 11.6526C66.0325 10.2587 68.0097 9.52771 70.5629 9.52771V8.59851V7.6693C67.6302 7.6693 65.1695 8.52167 63.2718 10.2945L63.9061 10.9735ZM70.5629 8.59851V9.52771C72.3896 9.52771 73.9002 9.92101 75.1342 10.6653L75.6141 9.86965L76.094 9.07399C74.5181 8.12343 72.6612 7.6693 70.5629 7.6693V8.59851ZM75.6141 9.86965L75.149 10.6741C76.4234 11.4108 77.3073 12.3738 77.8448 13.5638L78.6916 13.1813L79.5385 12.7989C78.827 11.2236 77.6593 9.97874 76.0792 9.06521L75.6141 9.86965ZM78.6916 13.1813L78.4529 12.2833L75.8102 12.9858L76.049 13.8838L76.2877 14.7818L78.9303 14.0794L78.6916 13.1813ZM76.049 13.8838L76.9162 13.5503C76.4858 12.4311 75.6477 11.5832 74.5058 10.9863L74.0753 11.8098L73.6449 12.6333C74.4655 13.0623 74.9431 13.597 75.1817 14.2174L76.049 13.8838ZM74.0753 11.8098L74.5058 10.9863C73.3647 10.3899 72.0394 10.1112 70.5629 10.1112V11.0405V11.9697C71.8072 11.9697 72.8235 12.204 73.6449 12.6333L74.0753 11.8098ZM70.5629 11.0405V10.1112C68.4346 10.1112 66.6291 10.7287 65.2421 12.0371L65.8798 12.713L66.5174 13.3889C67.4944 12.4673 68.811 11.9697 70.5629 11.9697V11.0405ZM65.8798 12.713L65.2357 12.0432C63.8529 13.3728 63.2111 15.1883 63.2111 17.3628H64.1403H65.0695C65.0695 15.5677 65.5873 14.2833 66.5238 13.3828L65.8798 12.713ZM64.1403 17.3628H63.2111C63.2111 19.5372 63.8529 21.3527 65.2357 22.6823L65.8798 22.0125L66.5238 21.3427C65.5873 20.4422 65.0695 19.1578 65.0695 17.3628H64.1403ZM65.8798 22.0125L65.2421 22.6884C66.6291 23.9968 68.4346 24.6143 70.5629 24.6143V23.6851V22.7559C68.811 22.7559 67.4944 22.2582 66.5174 21.3366L65.8798 22.0125ZM70.5629 23.6851V24.6143C72.0394 24.6143 73.3647 24.3356 74.5058 23.7392L74.0753 22.9157L73.6449 22.0922C72.8235 22.5215 71.8072 22.7559 70.5629 22.7559V23.6851ZM74.0753 22.9157L74.5058 23.7392C75.6477 23.1423 76.4858 22.2944 76.9162 21.1753L76.049 20.8417L75.1817 20.5081C74.9431 21.1285 74.4655 21.6632 73.6449 22.0922L74.0753 22.9157ZM76.049 20.8417L75.8102 21.7397L78.4529 22.4422L78.6916 21.5442L78.9303 20.6462L76.2877 19.9437L76.049 20.8417ZM78.6916 21.5442L77.8448 21.1617C77.3062 22.3542 76.4192 23.3306 75.1397 24.0903L75.6141 24.8893L76.0885 25.6883C77.6635 24.7531 78.8282 23.4994 79.5385 21.9266L78.6916 21.5442ZM75.6141 24.8893L75.1435 24.0881C73.9079 24.8138 72.3938 25.1978 70.5629 25.1978V26.127V27.0562C72.657 27.0562 74.5104 26.6151 76.0847 25.6905L75.6141 24.8893ZM70.5629 26.127V25.1978C68.0061 25.1978 66.0272 24.4758 64.5356 23.1019L63.9061 23.7854L63.2766 24.4689C65.1748 26.2172 67.6338 27.0562 70.5629 27.0562V26.127ZM84.313 1.70753H85.2422V0.778327H84.313V1.70753ZM84.313 11.7095H83.3838V14.2291L85.0197 12.3128L84.313 11.7095ZM87.2902 9.46824L86.8871 8.63103L87.2902 9.46824ZM95.8537 10.2711L95.2096 10.9409L95.2165 10.9473L95.8537 10.2711ZM97.5932 25.7256V26.6548H98.5224V25.7256H97.5932ZM94.8836 25.7256H93.9544V26.6548H94.8836V25.7256ZM93.7463 12.044L93.1212 12.7315L93.1321 12.7414L93.1433 12.751L93.7463 12.044ZM87.0895 12.1443L87.5632 12.9437L87.5675 12.9411L87.0895 12.1443ZM84.313 14.787L83.5222 14.2991L83.3838 14.5234V14.787H84.313ZM84.313 25.7256V26.6548H85.2422V25.7256H84.313ZM81.6034 25.7256H80.6742V26.6548H81.6034V25.7256ZM81.6034 1.70753V0.778327H80.6742V1.70753H81.6034ZM84.313 1.70753H83.3838V11.7095H84.313H85.2422V1.70753H84.313ZM84.313 11.7095L85.0197 12.3128C85.7075 11.5071 86.5923 10.8355 87.6933 10.3055L87.2902 9.46824L86.8871 8.63103C85.5795 9.26058 84.4796 10.0832 83.6063 11.1062L84.313 11.7095ZM87.2902 9.46824L87.6933 10.3055C88.7653 9.78928 89.9313 9.52771 91.204 9.52771V8.59851V7.6693C89.6668 7.6693 88.2235 7.98756 86.8871 8.63103L87.2902 9.46824ZM91.204 8.59851V9.52771C92.9566 9.52771 94.2576 10.0254 95.2097 10.9409L95.8537 10.2711L96.4978 9.60127C95.1305 8.28662 93.3317 7.6693 91.204 7.6693V8.59851ZM95.8537 10.2711L95.2165 10.9473C96.1617 11.838 96.664 13.0391 96.664 14.6532H97.5932H98.5224C98.5224 12.6099 97.8651 10.8896 96.491 9.59481L95.8537 10.2711ZM97.5932 14.6532H96.664V25.7256H97.5932H98.5224V14.6532H97.5932ZM97.5932 25.7256V24.7964H94.8836V25.7256V26.6548H97.5932V25.7256ZM94.8836 25.7256H95.8128V14.9208H94.8836H93.9544V25.7256H94.8836ZM94.8836 14.9208H95.8128C95.8128 13.4583 95.3689 12.2067 94.3493 11.337L93.7463 12.044L93.1433 12.751C93.6401 13.1747 93.9544 13.841 93.9544 14.9208H94.8836ZM93.7463 12.044L94.3713 11.3564C93.4126 10.4849 92.1235 10.1112 90.6353 10.1112V11.0405V11.9697C91.8233 11.9697 92.6081 12.2651 93.1212 12.7315L93.7463 12.044ZM90.6353 11.0405V10.1112C89.2913 10.1112 87.9455 10.5471 86.6114 11.3476L87.0895 12.1443L87.5675 12.9411C88.6865 12.2698 89.7047 11.9697 90.6353 11.9697V11.0405ZM87.0895 12.1443L86.6158 11.345C85.3 12.1247 84.2581 13.1064 83.5222 14.2991L84.313 14.787L85.1038 15.2749C85.6614 14.3713 86.4704 13.5913 87.5632 12.9437L87.0895 12.1443ZM84.313 14.787H83.3838V25.7256H84.313H85.2422V14.787H84.313ZM84.313 25.7256V24.7964H81.6034V25.7256V26.6548H84.313V25.7256ZM81.6034 25.7256H82.5327V1.70753H81.6034H80.6742V25.7256H81.6034ZM81.6034 1.70753V2.63673H84.313V1.70753V0.778327H81.6034V1.70753ZM123.89 25.7256V26.6548H124.819V25.7256H123.89ZM121.18 25.7256H120.251V26.6548H121.18V25.7256ZM120.11 12.0105L119.475 12.6891L119.48 12.6941L119.486 12.6991L120.11 12.0105ZM113.988 12.2112L114.503 12.9844L114.507 12.9821L113.988 12.2112ZM111.479 14.8205L110.663 14.3755L110.55 14.5835V14.8205H111.479ZM111.479 25.7256V26.6548H112.408V25.7256H111.479ZM108.77 25.7256H107.84V26.6548H108.77V25.7256ZM108.77 8.99992V8.07072H107.84V8.99992H108.77ZM111.479 8.99992H112.408V8.07072H111.479V8.99992ZM111.479 11.7429H110.55V14.3094L112.193 12.3378L111.479 11.7429ZM114.356 9.46824L113.94 8.63711L113.934 8.64041L114.356 9.46824ZM121.147 9.43479L120.68 10.2381L121.147 9.43479ZM123.321 11.8098L122.483 12.2107L123.072 13.4421L124.001 12.4427L123.321 11.8098ZM126.432 9.50169L126.841 10.336L126.854 10.3296L126.432 9.50169ZM134.594 10.2376L133.944 10.9013L133.951 10.9079L134.594 10.2376ZM136.267 25.7256V26.6548H137.196V25.7256H136.267ZM133.557 25.7256H132.628V26.6548H133.557V25.7256ZM132.487 12.0105L131.852 12.6891L131.857 12.6941L131.863 12.6991L132.487 12.0105ZM126.465 11.9771L126.928 12.7828L126.934 12.7797L126.465 11.9771ZM123.856 14.1514L123.136 13.5641L122.859 13.9038L122.945 14.3337L123.856 14.1514ZM123.89 14.6197H122.96V25.7256H123.89H124.819V14.6197H123.89ZM123.89 25.7256V24.7964H121.18V25.7256V26.6548H123.89V25.7256ZM121.18 25.7256H122.109V14.7535H121.18H120.251V25.7256H121.18ZM121.18 14.7535H122.109C122.109 13.3737 121.685 12.1839 120.734 11.322L120.11 12.0105L119.486 12.6991C119.962 13.1306 120.251 13.7695 120.251 14.7535H121.18ZM120.11 12.0105L120.744 11.332C119.832 10.4782 118.607 10.1112 117.199 10.1112V11.0405V11.9697C118.29 11.9697 119.005 12.2494 119.475 12.6891L120.11 12.0105ZM117.199 11.0405V10.1112C115.97 10.1112 114.72 10.5986 113.469 11.4404L113.988 12.2112L114.507 12.9821C115.576 12.2628 116.466 11.9697 117.199 11.9697V11.0405ZM113.988 12.2112L113.473 11.4381C112.238 12.2614 111.285 13.2359 110.663 14.3755L111.479 14.8205L112.295 15.2654C112.744 14.4426 113.464 13.6775 114.503 12.9844L113.988 12.2112ZM111.479 14.8205H110.55V25.7256H111.479H112.408V14.8205H111.479ZM111.479 25.7256V24.7964H108.77V25.7256V26.6548H111.479V25.7256ZM108.77 25.7256H109.699V8.99992H108.77H107.84V25.7256H108.77ZM108.77 8.99992V9.92913H111.479V8.99992V8.07072H108.77V8.99992ZM111.479 8.99992H110.55V11.7429H111.479H112.408V8.99992H111.479ZM111.479 11.7429L112.193 12.3378C112.889 11.5023 113.747 10.8215 114.778 10.2961L114.356 9.46824L113.934 8.64041C112.69 9.2746 111.63 10.1103 110.765 11.1481L111.479 11.7429ZM114.356 9.46824L114.772 10.2993C115.82 9.77496 116.827 9.52771 117.801 9.52771V8.59851V7.6693C116.501 7.6693 115.211 8.00187 113.94 8.63713L114.356 9.46824ZM117.801 8.59851V9.52771C118.933 9.52771 119.882 9.77445 120.68 10.2381L121.147 9.43479L121.614 8.63148C120.493 7.98008 119.212 7.6693 117.801 7.6693V8.59851ZM121.147 9.43479L120.68 10.2381C121.473 10.6993 122.07 11.3488 122.483 12.2107L123.321 11.8098L124.159 11.4089C123.59 10.2192 122.738 9.28529 121.614 8.63148L121.147 9.43479ZM123.321 11.8098L124.001 12.4427C124.816 11.5673 125.761 10.866 126.841 10.3359L126.432 9.50169L126.023 8.66746C124.739 9.29701 123.61 10.1345 122.641 11.1769L123.321 11.8098ZM126.432 9.50169L126.854 10.3296C127.924 9.78445 128.951 9.52771 129.944 9.52771V8.59851V7.6693C128.618 7.6693 127.304 8.01469 126.01 8.67373L126.432 9.50169ZM129.944 8.59851V9.52771C131.755 9.52771 133.046 10.0216 133.944 10.9013L134.594 10.2376L135.244 9.57397C133.912 8.26811 132.103 7.6693 129.944 7.6693V8.59851ZM134.594 10.2376L133.951 10.9079C134.848 11.7691 135.337 12.9679 135.337 14.6197H136.267H137.196C137.196 12.5696 136.571 10.8471 135.238 9.5673L134.594 10.2376ZM136.267 14.6197H135.337V25.7256H136.267H137.196V14.6197H136.267ZM136.267 25.7256V24.7964H133.557V25.7256V26.6548H136.267V25.7256ZM133.557 25.7256H134.486V14.7535H133.557H132.628V25.7256H133.557ZM133.557 14.7535H134.486C134.486 13.3737 134.062 12.1839 133.111 11.322L132.487 12.0105L131.863 12.6991C132.339 13.1306 132.628 13.7695 132.628 14.7535H133.557ZM132.487 12.0105L133.121 11.332C132.203 10.473 130.951 10.1112 129.509 10.1112V11.0405V11.9697C130.655 11.9697 131.387 12.2546 131.852 12.6891L132.487 12.0105ZM129.509 11.0405V10.1112C128.345 10.1112 127.169 10.4908 125.997 11.1745L126.465 11.9771L126.934 12.7797C127.903 12.2145 128.756 11.9697 129.509 11.9697V11.0405ZM126.465 11.9771L126.002 11.1714C124.866 11.824 123.906 12.62 123.136 13.5641L123.856 14.1514L124.576 14.7388C125.189 13.988 125.968 13.3344 126.928 12.7828L126.465 11.9771ZM123.856 14.1514L122.945 14.3337C122.95 14.3563 122.96 14.4414 122.96 14.6197H123.89H124.819C124.819 14.3967 124.807 14.1695 124.767 13.9692L123.856 14.1514ZM157.378 18.2659V19.1951H158.198L158.3 18.3812L157.378 18.2659ZM142.157 18.2659V17.3367H141.165L141.23 18.3269L142.157 18.2659ZM144.164 22.2466L143.592 22.9787L144.164 22.2466ZM152.059 23.1164L151.73 22.2471L151.724 22.2496L152.059 23.1164ZM154.3 21.5442L154.725 20.7178L154.02 20.3551L153.551 20.9947L154.3 21.5442ZM156.642 22.7484L157.392 23.2959L158.032 22.4186L157.067 21.9221L156.642 22.7484ZM153.33 25.2573L153.684 26.1162L153.691 26.1134L153.33 25.2573ZM142.023 23.7854L141.402 24.4765L141.407 24.4809L142.023 23.7854ZM141.89 11.007L141.246 10.3367L141.89 11.007ZM154.902 11.007L155.546 10.3367L154.902 11.007ZM144.164 12.3785L143.591 11.6473L143.584 11.6529L144.164 12.3785ZM142.224 15.9912L141.301 15.8827L141.179 16.9205H142.224V15.9912ZM154.534 15.9912V16.9205H155.579L155.457 15.8827L154.534 15.9912ZM152.594 12.3785L152.013 13.1041L152.594 12.3785ZM157.411 17.3628H156.482C156.482 17.7855 156.47 18.0352 156.455 18.1507L157.378 18.2659L158.3 18.3812C158.33 18.1398 158.34 17.7875 158.34 17.3628H157.411ZM157.378 18.2659V17.3367H142.157V18.2659V19.1951H157.378V18.2659ZM142.157 18.2659L141.23 18.3269C141.357 20.2589 142.137 21.8409 143.592 22.9787L144.164 22.2466L144.737 21.5146C143.739 20.7345 143.18 19.6627 143.084 18.2049L142.157 18.2659ZM144.164 22.2466L143.592 22.9787C145.015 24.0913 146.791 24.6143 148.847 24.6143V23.6851V22.7559C147.113 22.7559 145.767 22.3199 144.737 21.5146L144.164 22.2466ZM148.847 23.6851V24.6143C150.11 24.6143 151.295 24.4076 152.394 23.9831L152.059 23.1164L151.724 22.2496C150.86 22.5834 149.904 22.7559 148.847 22.7559V23.6851ZM152.059 23.1164L152.387 23.9856C153.51 23.5613 154.425 22.9447 155.049 22.0937L154.3 21.5442L153.551 20.9947C153.194 21.4816 152.614 21.9132 151.73 22.2471L152.059 23.1164ZM154.3 21.5442L153.875 22.3705L156.217 23.5747L156.642 22.7484L157.067 21.9221L154.725 20.7178L154.3 21.5442ZM156.642 22.7484L155.891 22.201C155.225 23.1134 154.267 23.8534 152.969 24.4011L153.33 25.2573L153.691 26.1134C155.247 25.4569 156.497 24.5243 157.392 23.2959L156.642 22.7484ZM153.33 25.2573L152.975 24.3983C151.686 24.9305 150.324 25.1978 148.881 25.1978V26.127V27.0562C150.56 27.0562 152.164 26.7437 153.684 26.1162L153.33 25.2573ZM148.881 26.127V25.1978C146.252 25.1978 144.2 24.4723 142.64 23.0899L142.023 23.7854L141.407 24.4809C143.371 26.2206 145.89 27.0562 148.881 27.0562V26.127ZM142.023 23.7854L142.644 23.0943C141.107 21.7126 140.31 19.8381 140.31 17.3628H139.381H138.451C138.451 20.2842 139.416 22.6915 141.402 24.4765L142.023 23.7854ZM139.381 17.3628H140.31C140.31 14.9468 141.068 13.0834 142.533 11.6773L141.89 11.007L141.246 10.3367C139.366 12.1419 138.451 14.5157 138.451 17.3628H139.381ZM141.89 11.007L142.533 11.6773C144.007 10.262 145.928 9.52771 148.379 9.52771V8.59851V7.6693C145.523 7.6693 143.117 8.54067 141.246 10.3367L141.89 11.007ZM148.379 8.59851V9.52771C150.855 9.52771 152.786 10.2634 154.259 11.6773L154.902 11.007L155.546 10.3367C153.673 8.53923 151.255 7.6693 148.379 7.6693V8.59851ZM154.902 11.007L154.259 11.6773C155.723 13.0834 156.482 14.9468 156.482 17.3628H157.411H158.34C158.34 14.5157 157.426 12.1419 155.546 10.3367L154.902 11.007ZM148.379 11.0405V10.1112C146.533 10.1112 144.917 10.6074 143.591 11.6474L144.164 12.3785L144.738 13.1097C145.686 12.3655 146.88 11.9697 148.379 11.9697V11.0405ZM144.164 12.3785L143.584 11.6529C142.264 12.7089 141.506 14.1421 141.301 15.8827L142.224 15.9912L143.147 16.0998C143.299 14.8075 143.835 13.8322 144.745 13.1041L144.164 12.3785ZM142.224 15.9912V16.9205H154.534V15.9912V15.062H142.224V15.9912ZM154.534 15.9912L155.457 15.8827C155.252 14.1421 154.494 12.7089 153.174 11.6529L152.594 12.3785L152.013 13.1041C152.924 13.8322 153.459 14.8075 153.611 16.0998L154.534 15.9912ZM152.594 12.3785L153.174 11.6529C151.865 10.6055 150.244 10.1112 148.379 10.1112V11.0405V11.9697C149.904 11.9697 151.093 12.3674 152.013 13.1041L152.594 12.3785Z" fill="#FFF9EF" mask="url(#path-1-outside-1_285_1071)"/>
</svg>
